700 0 1 0           
4 LibG 20 ASM 229.7.0.65535 NT 24 Fri Jun 14 13:28:35 2024 
1000 9.999999999999999547e-07 1.000000000000000036e-10 
body $-1 -1 $-1 $1 $-1 $2 #
lump $-1 -1 $-1 $3 $4 $0 #
transform $-1 -1 1 0 0 0 1 0 0 0 1 0 0 0 1 no_rotate no_reflect no_shear #
lump $-1 -1 $-1 $-1 $5 $0 #
shell $-1 -1 $-1 $-1 $-1 $6 $-1 $1 #
shell $-1 -1 $-1 $-1 $-1 $7 $-1 $3 #
face $-1 -1 $-1 $-1 $8 $4 $-1 $9 forward double out #
face $-1 -1 $-1 $-1 $10 $5 $-1 $11 forward double out #
loop $-1 -1 $-1 $-1 $12 $6 #
plane-surface $-1 -1 $-1 0.399999999999999245 0.4000000000000009659 0 0 0 1 0.3048000000000000154 0 0 forward_v I I I I #
loop $-1 -1 $-1 $13 $14 $7 #
plane-surface $-1 -1 $-1 0.399999999999999245 0.4000000000000009659 0 0 0 1 0.3048000000000000154 0 0 forward_v I I I I #
coedge $-1 -1 $-1 $15 $16 $-1 $17 forward $8 $-1 #
loop $-1 -1 $-1 $-1 $18 $7 #
coedge $-1 -1 $-1 $19 $20 $-1 $21 forward $10 $-1 #
coedge $-1 -1 $-1 $22 $12 $-1 $23 forward $8 $-1 #
coedge $-1 -1 $-1 $12 $22 $-1 $24 forward $8 $-1 #
edge $-1 -1 $-1 $25 0 $26 0.3861700308049651476 $12 $27 forward @7 unknown #
coedge $-1 -1 $-1 $28 $29 $-1 $30 forward $13 $-1 #
coedge $-1 -1 $-1 $31 $14 $-1 $32 forward $10 $-1 #
coedge $-1 -1 $-1 $14 $33 $-1 $34 forward $10 $-1 #
edge $-1 -1 $-1 $35 0 $36 3.141592653589789119 $14 $37 forward @7 unknown #
coedge $-1 -1 $-1 $16 $15 $-1 $38 forward $8 $-1 #
edge $-1 -1 $-1 $26 0 $39 0.4593175853018371946 $15 $40 forward @7 unknown #
edge $-1 -1 $-1 $41 -1.86958102633122058e-30 $25 3.141592653589798889 $16 $42 forward @7 unknown #
vertex $-1 -1 $-1 $17 $43 #
vertex $-1 -1 $-1 $17 $44 #
straight-curve $-1 -1 $-1 0.04058882092240428258 0.1649999999999998135 0 -0.3048000000000000154 9.639162700440619967e-16 0 F 0 F 0.3861700308049651476 #
coedge $-1 -1 $-1 $45 $18 $-1 $46 forward $13 $-1 #
coedge $-1 -1 $-1 $18 $45 $-1 $47 forward $13 $-1 #
edge $-1 -1 $-1 $48 0 $49 2.624671916010494321 $18 $50 forward @7 unknown #
coedge $-1 -1 $-1 $51 $19 $-1 $52 forward $10 $-1 #
edge $-1 -1 $-1 $36 -3.247402347028582486e-15 $53 0.3861700308049651476 $19 $54 forward @7 unknown #
coedge $-1 -1 $-1 $20 $51 $-1 $55 forward $10 $-1 #
edge $-1 -1 $-1 $56 1.878475030557534388e-31 $35 0.7217847769028871152 $20 $57 forward @7 unknown #
vertex $-1 -1 $-1 $21 $58 #
vertex $-1 -1 $-1 $21 $59 #
ellipse-curve $-1 -1 $-1 0.04058882092240408135 0.09219547389709846497 0 0 0 -1 2.030375867434486507e-16 0.1575000000000001399 0 1 F 0 F 3.141592653589789119 #
edge $-1 -1 $-1 $39 0 $41 0.3861700308049635932 $22 $60 forward @7 unknown #
vertex $-1 -1 $-1 $23 $61 #
straight-curve $-1 -1 $-1 -0.07711580446694910052 0.1650000000000002021 0 -1.031430940656719315e-15 -0.3048000000000000154 0 F 0 F 0.4593175853018371946 #
vertex $-1 -1 $-1 $38 $62 #
ellipse-curve $-1 -1 $-1 0.0405888209224040189 0.09499999999999979294 0 0 0 1 -6.852518552591391344e-16 -0.07000000000000002054 0 1 F -1.86958102633122058e-30 F 3.141592653589798889 #
point $-1 -1 $-1 0.04058882092240428258 0.1649999999999998135 0 #
point $-1 -1 $-1 -0.07711580446694910052 0.1650000000000002021 0 #
coedge $-1 -1 $-1 $29 $28 $-1 $63 forward $13 $-1 #
edge $-1 -1 $-1 $49 0 $64 2.624671916010506756 $28 $65 forward @7 unknown #
edge $-1 -1 $-1 $66 1.87847503055752864e-32 $48 2.624671916010506756 $29 $67 forward @7 unknown #
vertex $-1 -1 $-1 $30 $68 #
vertex $-1 -1 $-1 $30 $69 #
straight-curve $-1 -1 $-1 0.3999999999999994116 0.400000000000001299 0 -0.3048000000000000154 0 0 F 0 F 2.624671916010494321 #
coedge $-1 -1 $-1 $33 $31 $-1 $70 forward $10 $-1 #
edge $-1 -1 $-1 $53 0 $71 0.6233595800524933672 $31 $72 forward @7 unknown #
vertex $-1 -1 $-1 $32 $73 #
straight-curve $-1 -1 $-1 0.04058882092240354011 -0.06530452610290170268 0 -0.3048000000000000154 8.762875182218745246e-16 0 F -3.247402347028582486e-15 F 0.3861700308049651476 #
edge $-1 -1 $-1 $74 0 $56 1.656824146981626944 $33 $75 forward @7 unknown #
vertex $-1 -1 $-1 $55 $76 #
straight-curve $-1 -1 $-1 -0.1794111790775957116 0.2496954738970990073 0 0.3048000000000000154 -5.157154703283595589e-16 0 F 1.878475030557534388e-31 F 0.7217847769028871152 #
point $-1 -1 $-1 0.04058882092240428258 0.249695473897098591 0 #
point $-1 -1 $-1 0.04058882092240452544 -0.06530452610290166104 0 #
straight-curve $-1 -1 $-1 -0.07711580446694957236 0.02500000000000020609 0 0.3048000000000000154 -1.051545021866249469e-15 0 F 0 F 0.3861700308049635932 #
point $-1 -1 $-1 -0.07711580446694957236 0.02500000000000020609 0 #
point $-1 -1 $-1 0.04058882092240333195 0.02499999999999980016 0 #
edge $-1 -1 $-1 $64 0 $66 2.624671916010494321 $45 $77 forward @7 unknown #
vertex $-1 -1 $-1 $46 $78 #
straight-curve $-1 -1 $-1 -0.3999999999999993006 0.400000000000001299 0 0 -0.3048000000000000154 0 F 0 F 2.624671916010506756 #
vertex $-1 -1 $-1 $63 $79 #
straight-curve $-1 -1 $-1 0.3999999999999994671 -0.4000000000000011879 0 -2.578577351641789968e-17 0.3048000000000000154 0 F 1.87847503055752864e-32 F 2.624671916010506756 #
point $-1 -1 $-1 0.3999999999999994116 0.400000000000001299 0 #
point $-1 -1 $-1 -0.3999999999999993006 0.400000000000001299 0 #
edge $-1 -1 $-1 $71 0 $74 0.3356147460979201913 $51 $80 forward @7 unknown #
vertex $-1 -1 $-1 $52 $81 #
straight-curve $-1 -1 $-1 -0.07711580446694984992 -0.06530452610290135573 0 -9.771451016747866157e-16 -0.3048000000000000154 0 F 0 F 0.6233595800524933672 #
point $-1 -1 $-1 -0.07711580446694984992 -0.06530452610290135573 0 #
vertex $-1 -1 $-1 $70 $82 #
straight-curve $-1 -1 $-1 -0.1794111790775965443 -0.2553045261029009416 0 4.901850015002230271e-16 0.3048000000000000154 0 F 0 F 1.656824146981626944 #
point $-1 -1 $-1 -0.1794111790775957116 0.2496954738970989796 0 #
straight-curve $-1 -1 $-1 -0.3999999999999993006 -0.4000000000000011879 0 0.3048000000000000154 0 0 F 0 F 2.624671916010494321 #
point $-1 -1 $-1 -0.3999999999999993006 -0.4000000000000011879 0 #
point $-1 -1 $-1 0.3999999999999994116 -0.4000000000000011879 0 #
straight-curve $-1 -1 $-1 -0.07711580446695046054 -0.2553045261029013302 0 -0.3048000000000000154 1.209944372850706946e-15 0 F 0 F 0.3356147460979201913 #
point $-1 -1 $-1 -0.07711580446695046054 -0.2553045261029013302 0 #
point $-1 -1 $-1 -0.1794111790775965443 -0.2553045261029009416 0 #
End-of-ACIS-data 